ply
format ascii 1.0
comment VCGLIB generated
element vertex 25
property float x
property float y
property float z
element face 32
property list uchar int vertex_indices
property list uchar float texcoord
end_header
-0.999 -0.999 0.001 
-0.499 -0.999 0.001 
0.001 -0.999 0.001 
0.501 -0.999 0.001 
1.001 -0.999 0.001 
-0.999 -0.499 0.001 
-0.499 -0.499 0.001 
0.001 -0.499 0.001 
0.501 -0.499 0.001 
1.001 -0.499 0.001 
-0.999 0.001 0.001 
-0.499 0.001 0.001 
0.001 0.001 0.001 
0.501 0.001 0.001 
1.001 0.001 0.001 
-0.999 0.501 0.001 
-0.499 0.501 0.001 
0.001 0.501 0.001 
0.501 0.501 0.001 
1.001 0.501 0.001 
-0.999 1.001 0.001 
-0.499 1.001 0.001 
0.001 1.001 0.001 
0.501 1.001 0.001 
1.001 1.001 0.001 
3 5 0 6 6 0.5 0.5 0.5 0.5 0.5 0.5 
3 1 6 0 6 0.5 0.5 0.5 0.5 0.5 0.5 
3 6 1 7 6 0.5 0.5 0.5 0.5 0.5 0.5 
3 2 7 1 6 0.5 0.5 0.5 0.5 0.5 0.5 
3 7 2 8 6 0.5 0.5 0.5 0.5 0.5 0.5 
3 3 8 2 6 0.5 0.5 0.5 0.5 0.5 0.5 
3 8 3 9 6 0.5 0.5 0.5 0.5 0.5 0.5 
3 4 9 3 6 0.5 0.5 0.5 0.5 0.5 0.5 
3 10 5 11 6 0.5 0.5 0.5 0.5 0.5 0.5 
3 6 11 5 6 0.5 0.5 0.5 0.5 0.5 0.5 
3 11 6 12 6 0.5 0.5 0.5 0.5 0.5 0.5 
3 7 12 6 6 0.5 0.5 0.5 0.5 0.5 0.5 
3 12 7 13 6 0.5 0.5 0.5 0.5 0.5 0.5 
3 8 13 7 6 0.5 0.5 0.5 0.5 0.5 0.5 
3 13 8 14 6 0.5 0.5 0.5 0.5 0.5 0.5 
3 9 14 8 6 0.5 0.5 0.5 0.5 0.5 0.5 
3 15 10 16 6 0.5 0.5 0.5 0.5 0.5 0.5 
3 11 16 10 6 0.5 0.5 0.5 0.5 0.5 0.5 
3 16 11 17 6 0.5 0.5 0.5 0.5 0.5 0.5 
3 12 17 11 6 0.5 0.5 0.5 0.5 0.5 0.5 
3 17 12 18 6 0.5 0.5 0.5 0.5 0.5 0.5 
3 13 18 12 6 0.5 0.5 0.5 0.5 0.5 0.5 
3 18 13 19 6 0.5 0.5 0.5 0.5 0.5 0.5 
3 14 19 13 6 0.5 0.5 0.5 0.5 0.5 0.5 
3 20 15 21 6 0.5 0.5 0.5 0.5 0.5 0.5 
3 16 21 15 6 0.5 0.5 0.5 0.5 0.5 0.5 
3 21 16 22 6 0.5 0.5 0.5 0.5 0.5 0.5 
3 17 22 16 6 0.5 0.5 0.5 0.5 0.5 0.5 
3 22 17 23 6 0.5 0.5 0.5 0.5 0.5 0.5 
3 18 23 17 6 0.5 0.5 0.5 0.5 0.5 0.5 
3 23 18 24 6 0.5 0.5 0.5 0.5 0.5 0.5 
3 19 24 18 6 0.5 0.5 0.5 0.5 0.5 0.5 
