ply
format ascii 1.0
comment VCGLIB generated
element vertex 588
property float x
property float y
property float z
element face 960
property list uchar int vertex_indices
end_header
0.001 -52.0006 0.000997727 
0.000999557 -51.0014 10.146 
-1.97819 -51.0014 9.95107 
-3.88133 -51.0014 9.37376 
-5.63526 -51.0014 8.43626 
-7.1726 -51.0014 7.1746 
-8.43426 -51.0014 5.63726 
-9.37176 -51.0014 3.88332 
-9.94907 -51.0014 1.98019 
-10.144 -51.0014 0.000996884 
-9.94907 -51.0014 -1.9782 
-9.37176 -51.0014 -3.88133 
-8.43426 -51.0014 -5.63527 
-7.1726 -51.0014 -7.17261 
-5.63526 -51.0014 -8.43427 
-3.88132 -51.0014 -9.37177 
-1.97819 -51.0014 -9.94907 
0.00100133 -51.0014 -10.144 
1.98019 -51.0014 -9.94907 
3.88333 -51.0014 -9.37176 
5.63726 -51.0014 -8.43427 
7.1746 -51.0014 -7.1726 
8.43626 -51.0014 -5.63526 
9.37376 -51.0014 -3.88133 
9.95107 -51.0014 -1.97819 
10.146 -51.0014 0.000999545 
9.95107 -51.0014 1.98019 
9.37376 -51.0014 3.88332 
8.43626 -51.0014 5.63726 
7.1746 -51.0014 7.1746 
5.63726 -51.0014 8.43626 
3.88332 -51.0014 9.37376 
1.98019 -51.0014 9.95107 
0.00099913 -48.0422 19.9011 
-3.88133 -48.0422 19.5188 
-7.61446 -48.0422 18.3863 
-11.0549 -48.0422 16.5474 
-14.0705 -48.0422 14.0725 
-16.5454 -48.0422 11.0569 
-18.3843 -48.0422 7.61645 
-19.5168 -48.0422 3.88332 
-19.8991 -48.0422 0.00099616 
-19.5168 -48.0422 -3.88133 
-18.3843 -48.0422 -7.61446 
-16.5454 -48.0422 -11.0549 
-14.0705 -48.0422 -14.0705 
-11.0549 -48.0422 -16.5454 
-7.61445 -48.0422 -18.3843 
-3.88132 -48.0422 -19.5168 
0.00100261 -48.0422 -19.8991 
3.88333 -48.0422 -19.5168 
7.61646 -48.0422 -18.3843 
11.0569 -48.0422 -16.5454 
14.0725 -48.0422 -14.0705 
16.5474 -48.0422 -11.0549 
18.3863 -48.0422 -7.61445 
19.5188 -48.0422 -3.88132 
19.9011 -48.0422 0.00100138 
19.5188 -48.0422 3.88333 
18.3863 -48.0422 7.61646 
16.5474 -48.0422 11.0569 
14.0725 -48.0422 14.0725 
11.0569 -48.0422 16.5474 
7.61645 -48.0422 18.3863 
3.88332 -48.0422 19.5188 
0.000998737 -43.2367 28.8915 
-5.63526 -43.2367 28.3364 
-11.0549 -43.2367 26.6924 
-16.0497 -43.2367 24.0226 
-20.4277 -43.2367 20.4297 
-24.0206 -43.2367 16.0517 
-26.6904 -43.2367 11.0569 
-28.3344 -43.2367 5.63726 
-28.8895 -43.2367 0.000995584 
-28.3344 -43.2367 -5.63527 
-26.6904 -43.2367 -11.0549 
-24.0206 -43.2367 -16.0497 
-20.4277 -43.2367 -20.4277 
-16.0497 -43.2367 -24.0206 
-11.0549 -43.2367 -26.6904 
-5.63526 -43.2367 -28.3344 
0.00100379 -43.2367 -28.8895 
5.63727 -43.2367 -28.3344 
11.0569 -43.2367 -26.6904 
16.0517 -43.2367 -24.0206 
20.4297 -43.2367 -20.4277 
24.0226 -43.2367 -16.0497 
26.6924 -43.2367 -11.0549 
28.3364 -43.2367 -5.63526 
28.8915 -43.2367 0.00100316 
28.3364 -43.2367 5.63727 
26.6924 -43.2367 11.0569 
24.0226 -43.2367 16.0517 
20.4297 -43.2367 20.4297 
16.0517 -43.2367 24.0226 
11.0569 -43.2367 26.6924 
5.63726 -43.2367 28.3364 
0.000998393 -36.7697 36.7717 
-7.1726 -36.7697 36.0651 
-14.0705 -36.7697 33.9727 
-20.4277 -36.7697 30.5747 
-25.9998 -36.7697 26.0018 
-30.5727 -36.7697 20.4297 
-33.9707 -36.7697 14.0725 
-36.0631 -36.7697 7.1746 
-36.7697 -36.7697 0.000995178 
-36.0631 -36.7697 -7.17261 
-33.9707 -36.7697 -14.0705 
-30.5727 -36.7697 -20.4277 
-25.9998 -36.7697 -25.9998 
-20.4277 -36.7697 -30.5727 
-14.0705 -36.7697 -33.9707 
-7.1726 -36.7697 -36.0631 
0.00100482 -36.7697 -36.7697 
7.17461 -36.7697 -36.0631 
14.0725 -36.7697 -33.9707 
20.4297 -36.7697 -30.5727 
26.0018 -36.7697 -25.9998 
30.5747 -36.7697 -20.4277 
33.9727 -36.7697 -14.0705 
36.0651 -36.7697 -7.1726 
36.7717 -36.7697 0.00100482 
36.0651 -36.7697 7.17461 
33.9727 -36.7697 14.0725 
30.5747 -36.7697 20.4297 
26.0018 -36.7697 26.0018 
20.4297 -36.7697 30.5747 
14.0725 -36.7697 33.9727 
7.17459 -36.7697 36.0651 
0.00099811 -28.8895 43.2387 
-8.43427 -28.8895 42.4079 
-16.5454 -28.8895 39.9475 
-24.0206 -28.8895 35.9519 
-30.5727 -28.8895 30.5747 
-35.9499 -28.8895 24.0226 
-39.9455 -28.8895 16.5474 
-42.4059 -28.8895 8.43626 
-43.2367 -28.8895 0.000994957 
-42.4059 -28.8895 -8.43427 
-39.9455 -28.8895 -16.5454 
-35.9499 -28.8895 -24.0206 
-30.5727 -28.8895 -30.5727 
-24.0206 -28.8895 -35.9499 
-16.5454 -28.8895 -39.9455 
-8.43426 -28.8895 -42.4059 
0.00100567 -28.8895 -43.2367 
8.43627 -28.8895 -42.4059 
16.5474 -28.8895 -39.9455 
24.0226 -28.8895 -35.9499 
30.5747 -28.8895 -30.5727 
35.9519 -28.8895 -24.0206 
39.9475 -28.8895 -16.5454 
42.4079 -28.8895 -8.43426 
43.2387 -28.8895 0.0010063 
42.4079 -28.8895 8.43627 
39.9475 -28.8895 16.5474 
35.9519 -28.8895 24.0226 
30.5747 -28.8895 30.5747 
24.0226 -28.8895 35.9519 
16.5474 -28.8895 39.9475 
8.43625 -28.8895 42.4079 
0.0009979 -19.8991 48.0442 
-9.37176 -19.8991 47.1211 
-18.3843 -19.8991 44.3871 
-26.6904 -19.8991 39.9475 
-33.9707 -19.8991 33.9727 
-39.9455 -19.8991 26.6924 
-44.3851 -19.8991 18.3863 
-47.1191 -19.8991 9.37376 
-48.0422 -19.8991 0.00099493 
-47.1191 -19.8991 -9.37177 
-44.3851 -19.8991 -18.3843 
-39.9455 -19.8991 -26.6904 
-33.9707 -19.8991 -33.9707 
-26.6904 -19.8991 -39.9455 
-18.3843 -19.8991 -44.3851 
-9.37176 -19.8991 -47.1191 
0.0010063 -19.8991 -48.0422 
9.37377 -19.8991 -47.1191 
18.3863 -19.8991 -44.3851 
26.6924 -19.8991 -39.9455 
33.9727 -19.8991 -33.9707 
39.9475 -19.8991 -26.6904 
44.3871 -19.8991 -18.3843 
47.1211 -19.8991 -9.37175 
48.0442 -19.8991 0.00100753 
47.1211 -19.8991 9.37377 
44.3871 -19.8991 18.3863 
39.9474 -19.8991 26.6924 
33.9727 -19.8991 33.9727 
26.6924 -19.8991 39.9475 
18.3863 -19.8991 44.3871 
9.37375 -19.8991 47.1211 
0.000997771 -10.144 51.0034 
-9.94907 -10.144 50.0234 
-19.5168 -10.144 47.1211 
-28.3344 -10.144 42.4079 
-36.0631 -10.144 36.0651 
-42.4059 -10.144 28.3364 
-47.1191 -10.144 19.5188 
-50.0214 -10.144 9.95107 
-51.0014 -10.144 0.000995098 
-50.0214 -10.144 -9.94908 
-47.1191 -10.144 -19.5168 
-42.4059 -10.144 -28.3344 
-36.0631 -10.144 -36.0631 
-28.3344 -10.144 -42.4059 
-19.5168 -10.144 -47.1191 
-9.94907 -10.144 -50.0214 
0.00100669 -10.144 -51.0014 
9.95108 -10.144 -50.0214 
19.5188 -10.144 -47.1191 
28.3364 -10.144 -42.4059 
36.0651 -10.144 -36.0631 
42.4079 -10.144 -28.3344 
47.1211 -10.144 -19.5168 
50.0234 -10.144 -9.94906 
51.0034 -10.144 0.00100847 
50.0234 -10.144 9.95108 
47.1211 -10.144 19.5188 
42.4079 -10.144 28.3364 
36.0651 -10.144 36.0651 
28.3364 -10.144 42.4079 
19.5188 -10.144 47.1211 
9.95106 -10.144 50.0234 
0.000997727 0.001 52.0026 
-10.144 0.00100004 51.0034 
-19.8991 0.00100017 48.0442 
-28.8895 0.00100038 43.2387 
-36.7697 0.00100067 36.7717 
-43.2367 0.00100101 28.8915 
-48.0422 0.0010014 19.9011 
-51.0014 0.00100183 10.146 
-52.0006 0.00100227 0.000995454 
-51.0014 0.00100272 -10.144 
-48.0422 0.00100314 -19.8991 
-43.2367 0.00100354 -28.8895 
-36.7697 0.00100388 -36.7697 
-28.8895 0.00100416 -43.2367 
-19.8991 0.00100437 -48.0422 
-10.144 0.0010045 -51.0014 
0.00100682 0.00100455 -52.0006 
10.146 0.0010045 -51.0014 
19.9011 0.00100437 -48.0422 
28.8915 0.00100416 -43.2367 
36.7717 0.00100388 -36.7697 
43.2387 0.00100354 -28.8895 
48.0442 0.00100314 -19.8991 
51.0034 0.00100272 -10.144 
52.0026 0.00100227 0.00100909 
51.0034 0.00100183 10.146 
48.0442 0.0010014 19.9012 
43.2387 0.00100101 28.8915 
36.7717 0.00100067 36.7717 
28.8915 0.00100038 43.2387 
19.9011 0.00100017 48.0442 
10.146 0.00100004 51.0034 
0.000997771 10.146 51.0034 
-9.94907 10.146 50.0234 
-19.5168 10.146 47.1211 
-28.3344 10.146 42.4079 
-36.0631 10.146 36.0651 
-42.4059 10.146 28.3364 
-47.1191 10.146 19.5188 
-50.0214 10.146 9.95107 
-51.0014 10.146 0.000995985 
-50.0214 10.146 -9.94908 
-47.1191 10.146 -19.5168 
-42.4059 10.146 -28.3344 
-36.0631 10.146 -36.0631 
-28.3344 10.146 -42.4059 
-19.5168 10.146 -47.1191 
-9.94907 10.146 -50.0214 
0.00100669 10.146 -51.0014 
9.95108 10.146 -50.0214 
19.5188 10.146 -47.1191 
28.3364 10.146 -42.4059 
36.0651 10.146 -36.0631 
42.4079 10.146 -28.3344 
47.1211 10.146 -19.5168 
50.0234 10.146 -9.94906 
51.0034 10.146 0.00100936 
50.0234 10.146 9.95108 
47.1211 10.146 19.5188 
42.4079 10.146 28.3364 
36.0651 10.146 36.0651 
28.3364 10.146 42.4079 
19.5188 10.146 47.1211 
9.95106 10.146 50.0234 
0.0009979 19.9011 48.0442 
-9.37176 19.9011 47.1211 
-18.3843 19.9011 44.3871 
-26.6904 19.9011 39.9475 
-33.9707 19.9011 33.9727 
-39.9455 19.9011 26.6924 
-44.3851 19.9011 18.3863 
-47.1191 19.9011 9.37376 
-48.0422 19.9011 0.00099667 
-47.1191 19.9011 -9.37177 
-44.3851 19.9011 -18.3843 
-39.9455 19.9011 -26.6904 
-33.9707 19.9011 -33.9707 
-26.6904 19.9011 -39.9455 
-18.3843 19.9011 -44.3851 
-9.37176 19.9011 -47.1191 
0.0010063 19.9011 -48.0422 
9.37377 19.9011 -47.1191 
18.3863 19.9011 -44.3851 
26.6924 19.9011 -39.9455 
33.9727 19.9011 -33.9707 
39.9475 19.9011 -26.6904 
44.3871 19.9011 -18.3843 
47.1211 19.9011 -9.37175 
48.0442 19.9011 0.00100927 
47.1211 19.9011 9.37377 
44.3871 19.9011 18.3863 
39.9474 19.9011 26.6924 
33.9727 19.9011 33.9727 
26.6924 19.9011 39.9475 
18.3863 19.9011 44.3871 
9.37375 19.9011 47.1211 
0.00099811 28.8915 43.2387 
-8.43427 28.8915 42.4079 
-16.5454 28.8915 39.9475 
-24.0206 28.8915 35.9519 
-30.5727 28.8915 30.5747 
-35.9499 28.8915 24.0226 
-39.9455 28.8915 16.5474 
-42.4059 28.8915 8.43626 
-43.2367 28.8915 0.000997483 
-42.4059 28.8915 -8.43427 
-39.9455 28.8915 -16.5454 
-35.9499 28.8915 -24.0206 
-30.5727 28.8915 -30.5727 
-24.0206 28.8915 -35.9499 
-16.5454 28.8915 -39.9455 
-8.43426 28.8915 -42.4059 
0.00100567 28.8915 -43.2367 
8.43627 28.8915 -42.4059 
16.5474 28.8915 -39.9455 
24.0226 28.8915 -35.9499 
30.5747 28.8915 -30.5727 
35.9519 28.8915 -24.0206 
39.9475 28.8915 -16.5454 
42.4079 28.8915 -8.43425 
43.2387 28.8915 0.00100882 
42.4079 28.8915 8.43627 
39.9475 28.8915 16.5474 
35.9519 28.8915 24.0226 
30.5747 28.8915 30.5747 
24.0226 28.8915 35.9519 
16.5474 28.8915 39.9475 
8.43625 28.8915 42.4079 
0.000998393 36.7717 36.7717 
-7.1726 36.7717 36.0651 
-14.0705 36.7717 33.9727 
-20.4277 36.7717 30.5747 
-25.9998 36.7717 26.0018 
-30.5727 36.7717 20.4297 
-33.9707 36.7717 14.0725 
-36.0631 36.7717 7.1746 
-36.7697 36.7717 0.000998393 
-36.0631 36.7717 -7.1726 
-33.9707 36.7717 -14.0705 
-30.5727 36.7717 -20.4277 
-25.9998 36.7717 -25.9998 
-20.4277 36.7717 -30.5727 
-14.0705 36.7717 -33.9707 
-7.1726 36.7717 -36.0631 
0.00100482 36.7717 -36.7697 
7.17461 36.7717 -36.0631 
14.0725 36.7717 -33.9707 
20.4297 36.7717 -30.5727 
26.0018 36.7717 -25.9998 
30.5747 36.7717 -20.4277 
33.9727 36.7717 -14.0705 
36.0651 36.7717 -7.17259 
36.7717 36.7717 0.00100804 
36.0651 36.7717 7.17461 
33.9727 36.7717 14.0725 
30.5747 36.7717 20.4297 
26.0018 36.7717 26.0018 
20.4297 36.7717 30.5747 
14.0725 36.7717 33.9727 
7.17459 36.7717 36.0651 
0.000998737 43.2387 28.8915 
-5.63526 43.2387 28.3364 
-11.0549 43.2387 26.6924 
-16.0497 43.2387 24.0226 
-20.4277 43.2387 20.4297 
-24.0206 43.2387 16.0517 
-26.6904 43.2387 11.0569 
-28.3344 43.2387 5.63726 
-28.8895 43.2387 0.000999364 
-28.3344 43.2387 -5.63526 
-26.6904 43.2387 -11.0549 
-24.0206 43.2387 -16.0497 
-20.4277 43.2387 -20.4277 
-16.0497 43.2387 -24.0206 
-11.0549 43.2387 -26.6904 
-5.63526 43.2387 -28.3344 
0.00100379 43.2387 -28.8895 
5.63727 43.2387 -28.3344 
11.0569 43.2387 -26.6904 
16.0517 43.2387 -24.0206 
20.4297 43.2387 -20.4277 
24.0226 43.2387 -16.0497 
26.6924 43.2387 -11.0549 
28.3364 43.2387 -5.63526 
28.8915 43.2387 0.00100694 
28.3364 43.2387 5.63727 
26.6924 43.2387 11.0569 
24.0226 43.2387 16.0517 
20.4297 43.2387 20.4297 
16.0517 43.2387 24.0226 
11.0569 43.2387 26.6924 
5.63726 43.2387 28.3364 
0.00099913 48.0442 19.9011 
-3.88133 48.0442 19.5188 
-7.61445 48.0442 18.3863 
-11.0549 48.0442 16.5474 
-14.0705 48.0442 14.0725 
-16.5454 48.0442 11.0569 
-18.3843 48.0442 7.61645 
-19.5168 48.0442 3.88332 
-19.8991 48.0442 0.00100036 
-19.5168 48.0442 -3.88132 
-18.3843 48.0442 -7.61445 
-16.5454 48.0442 -11.0549 
-14.0705 48.0442 -14.0705 
-11.0549 48.0442 -16.5454 
-7.61445 48.0442 -18.3843 
-3.88132 48.0442 -19.5168 
0.00100261 48.0442 -19.8991 
3.88333 48.0442 -19.5168 
7.61646 48.0442 -18.3843 
11.0569 48.0442 -16.5454 
14.0725 48.0442 -14.0705 
16.5474 48.0442 -11.0549 
18.3863 48.0442 -7.61445 
19.5188 48.0442 -3.88132 
19.9011 48.0442 0.00100558 
19.5188 48.0442 3.88333 
18.3863 48.0442 7.61646 
16.5474 48.0442 11.0569 
14.0725 48.0442 14.0725 
11.0569 48.0442 16.5474 
7.61645 48.0442 18.3863 
3.88332 48.0442 19.5188 
0.000999557 51.0034 10.146 
-1.97819 51.0034 9.95107 
-3.88132 51.0034 9.37376 
-5.63526 51.0034 8.43626 
-7.1726 51.0034 7.1746 
-8.43426 51.0034 5.63726 
-9.37176 51.0034 3.88333 
-9.94907 51.0034 1.98019 
-10.144 51.0034 0.00100134 
-9.94907 51.0034 -1.97819 
-9.37176 51.0034 -3.88132 
-8.43426 51.0034 -5.63526 
-7.1726 51.0034 -7.1726 
-5.63526 51.0034 -8.43426 
-3.88132 51.0034 -9.37176 
-1.97819 51.0034 -9.94907 
0.00100133 51.0034 -10.144 
1.98019 51.0034 -9.94906 
3.88332 51.0034 -9.37176 
5.63726 51.0034 -8.43426 
7.1746 51.0034 -7.1726 
8.43626 51.0034 -5.63526 
9.37376 51.0034 -3.88132 
9.95107 51.0034 -1.97819 
10.146 51.0034 0.001004 
9.95107 51.0034 1.9802 
9.37376 51.0034 3.88333 
8.43626 51.0034 5.63726 
7.1746 51.0034 7.1746 
5.63726 51.0034 8.43626 
3.88332 51.0034 9.37376 
1.98019 51.0034 9.95107 
0.001 52.0026 0.00100227 
0.001 -52.0006 0.000997727 
0.001 -52.0006 0.000997727 
0.001 -52.0006 0.000997727 
0.001 -52.0006 0.000997727 
0.001 -52.0006 0.000997727 
0.001 -52.0006 0.000997727 
0.001 -52.0006 0.000997727 
0.001 -52.0006 0.000997727 
0.001 -52.0006 0.000997727 
0.001 -52.0006 0.000997727 
0.001 -52.0006 0.000997727 
0.001 -52.0006 0.000997727 
0.001 -52.0006 0.000997727 
0.001 -52.0006 0.000997727 
0.001 -52.0006 0.000997727 
0.001 -52.0006 0.000997727 
0.001 -52.0006 0.000997727 
0.001 -52.0006 0.000997727 
0.001 -52.0006 0.000997727 
0.001 -52.0006 0.000997727 
0.001 -52.0006 0.000997727 
0.001 -52.0006 0.000997727 
0.001 -52.0006 0.000997727 
0.001 -52.0006 0.000997727 
0.001 -52.0006 0.000997727 
0.001 -52.0006 0.000997727 
0.001 -52.0006 0.000997727 
0.001 -52.0006 0.000997727 
0.001 -52.0006 0.000997727 
0.001 -52.0006 0.000997727 
0.001 -52.0006 0.000997727 
0.000999557 -51.0014 10.146 
0.00099913 -48.0422 19.9011 
0.00099913 -48.0422 19.9011 
0.000999557 -51.0014 10.146 
0.000998737 -43.2367 28.8915 
0.000998737 -43.2367 28.8915 
0.00099913 -48.0422 19.9011 
0.000998393 -36.7697 36.7717 
0.000998393 -36.7697 36.7717 
0.000998737 -43.2367 28.8915 
0.00099811 -28.8895 43.2387 
0.00099811 -28.8895 43.2387 
0.000998393 -36.7697 36.7717 
0.0009979 -19.8991 48.0442 
0.0009979 -19.8991 48.0442 
0.00099811 -28.8895 43.2387 
0.000997771 -10.144 51.0034 
0.000997771 -10.144 51.0034 
0.0009979 -19.8991 48.0442 
0.000997727 0.001 52.0026 
0.000997727 0.001 52.0026 
0.000997771 -10.144 51.0034 
0.000997771 10.146 51.0034 
0.000997771 10.146 51.0034 
0.000997727 0.001 52.0026 
0.0009979 19.9011 48.0442 
0.0009979 19.9011 48.0442 
0.000997771 10.146 51.0034 
0.00099811 28.8915 43.2387 
0.00099811 28.8915 43.2387 
0.0009979 19.9011 48.0442 
0.000998393 36.7717 36.7717 
0.000998393 36.7717 36.7717 
0.00099811 28.8915 43.2387 
0.000998737 43.2387 28.8915 
0.000998737 43.2387 28.8915 
0.000998393 36.7717 36.7717 
0.00099913 48.0442 19.9011 
0.00099913 48.0442 19.9011 
0.000998737 43.2387 28.8915 
0.000999557 51.0034 10.146 
0.000999557 51.0034 10.146 
0.00099913 48.0442 19.9011 
0.001 52.0026 0.00100227 
0.001 52.0026 0.00100227 
0.001 52.0026 0.00100227 
0.001 52.0026 0.00100227 
0.001 52.0026 0.00100227 
0.001 52.0026 0.00100227 
0.001 52.0026 0.00100227 
0.001 52.0026 0.00100227 
0.001 52.0026 0.00100227 
0.001 52.0026 0.00100227 
0.001 52.0026 0.00100227 
0.001 52.0026 0.00100227 
0.001 52.0026 0.00100227 
0.001 52.0026 0.00100227 
0.001 52.0026 0.00100227 
0.001 52.0026 0.00100227 
0.001 52.0026 0.00100227 
0.001 52.0026 0.00100227 
0.001 52.0026 0.00100227 
0.001 52.0026 0.00100227 
0.001 52.0026 0.00100227 
0.001 52.0026 0.00100227 
0.001 52.0026 0.00100227 
0.001 52.0026 0.00100227 
0.001 52.0026 0.00100227 
0.001 52.0026 0.00100227 
0.001 52.0026 0.00100227 
0.001 52.0026 0.00100227 
0.001 52.0026 0.00100227 
0.001 52.0026 0.00100227 
0.001 52.0026 0.00100227 
0.000999557 51.0034 10.146 
3 0 1 2 
3 482 2 3 
3 483 3 4 
3 484 4 5 
3 485 5 6 
3 486 6 7 
3 487 7 8 
3 488 8 9 
3 489 9 10 
3 490 10 11 
3 491 11 12 
3 492 12 13 
3 493 13 14 
3 494 14 15 
3 495 15 16 
3 496 16 17 
3 497 17 18 
3 498 18 19 
3 499 19 20 
3 500 20 21 
3 501 21 22 
3 502 22 23 
3 503 23 24 
3 504 24 25 
3 505 25 26 
3 506 26 27 
3 507 27 28 
3 508 28 29 
3 509 29 30 
3 510 30 31 
3 511 31 32 
3 512 32 513 
3 1 33 34 
3 1 34 2 
3 2 34 35 
3 2 35 3 
3 3 35 36 
3 3 36 4 
3 4 36 37 
3 4 37 5 
3 5 37 38 
3 5 38 6 
3 6 38 39 
3 6 39 7 
3 7 39 40 
3 7 40 8 
3 8 40 41 
3 8 41 9 
3 9 41 42 
3 9 42 10 
3 10 42 43 
3 10 43 11 
3 11 43 44 
3 11 44 12 
3 12 44 45 
3 12 45 13 
3 13 45 46 
3 13 46 14 
3 14 46 47 
3 14 47 15 
3 15 47 48 
3 15 48 16 
3 16 48 49 
3 16 49 17 
3 17 49 50 
3 17 50 18 
3 18 50 51 
3 18 51 19 
3 19 51 52 
3 19 52 20 
3 20 52 53 
3 20 53 21 
3 21 53 54 
3 21 54 22 
3 22 54 55 
3 22 55 23 
3 23 55 56 
3 23 56 24 
3 24 56 57 
3 24 57 25 
3 25 57 58 
3 25 58 26 
3 26 58 59 
3 26 59 27 
3 27 59 60 
3 27 60 28 
3 28 60 61 
3 28 61 29 
3 29 61 62 
3 29 62 30 
3 30 62 63 
3 30 63 31 
3 31 63 64 
3 31 64 32 
3 32 64 514 
3 32 515 516 
3 33 65 66 
3 33 66 34 
3 34 66 67 
3 34 67 35 
3 35 67 68 
3 35 68 36 
3 36 68 69 
3 36 69 37 
3 37 69 70 
3 37 70 38 
3 38 70 71 
3 38 71 39 
3 39 71 72 
3 39 72 40 
3 40 72 73 
3 40 73 41 
3 41 73 74 
3 41 74 42 
3 42 74 75 
3 42 75 43 
3 43 75 76 
3 43 76 44 
3 44 76 77 
3 44 77 45 
3 45 77 78 
3 45 78 46 
3 46 78 79 
3 46 79 47 
3 47 79 80 
3 47 80 48 
3 48 80 81 
3 48 81 49 
3 49 81 82 
3 49 82 50 
3 50 82 83 
3 50 83 51 
3 51 83 84 
3 51 84 52 
3 52 84 85 
3 52 85 53 
3 53 85 86 
3 53 86 54 
3 54 86 87 
3 54 87 55 
3 55 87 88 
3 55 88 56 
3 56 88 89 
3 56 89 57 
3 57 89 90 
3 57 90 58 
3 58 90 91 
3 58 91 59 
3 59 91 92 
3 59 92 60 
3 60 92 93 
3 60 93 61 
3 61 93 94 
3 61 94 62 
3 62 94 95 
3 62 95 63 
3 63 95 96 
3 63 96 64 
3 64 96 517 
3 64 518 519 
3 65 97 98 
3 65 98 66 
3 66 98 99 
3 66 99 67 
3 67 99 100 
3 67 100 68 
3 68 100 101 
3 68 101 69 
3 69 101 102 
3 69 102 70 
3 70 102 103 
3 70 103 71 
3 71 103 104 
3 71 104 72 
3 72 104 105 
3 72 105 73 
3 73 105 106 
3 73 106 74 
3 74 106 107 
3 74 107 75 
3 75 107 108 
3 75 108 76 
3 76 108 109 
3 76 109 77 
3 77 109 110 
3 77 110 78 
3 78 110 111 
3 78 111 79 
3 79 111 112 
3 79 112 80 
3 80 112 113 
3 80 113 81 
3 81 113 114 
3 81 114 82 
3 82 114 115 
3 82 115 83 
3 83 115 116 
3 83 116 84 
3 84 116 117 
3 84 117 85 
3 85 117 118 
3 85 118 86 
3 86 118 119 
3 86 119 87 
3 87 119 120 
3 87 120 88 
3 88 120 121 
3 88 121 89 
3 89 121 122 
3 89 122 90 
3 90 122 123 
3 90 123 91 
3 91 123 124 
3 91 124 92 
3 92 124 125 
3 92 125 93 
3 93 125 126 
3 93 126 94 
3 94 126 127 
3 94 127 95 
3 95 127 128 
3 95 128 96 
3 96 128 520 
3 96 521 522 
3 97 129 130 
3 97 130 98 
3 98 130 131 
3 98 131 99 
3 99 131 132 
3 99 132 100 
3 100 132 133 
3 100 133 101 
3 101 133 134 
3 101 134 102 
3 102 134 135 
3 102 135 103 
3 103 135 136 
3 103 136 104 
3 104 136 137 
3 104 137 105 
3 105 137 138 
3 105 138 106 
3 106 138 139 
3 106 139 107 
3 107 139 140 
3 107 140 108 
3 108 140 141 
3 108 141 109 
3 109 141 142 
3 109 142 110 
3 110 142 143 
3 110 143 111 
3 111 143 144 
3 111 144 112 
3 112 144 145 
3 112 145 113 
3 113 145 146 
3 113 146 114 
3 114 146 147 
3 114 147 115 
3 115 147 148 
3 115 148 116 
3 116 148 149 
3 116 149 117 
3 117 149 150 
3 117 150 118 
3 118 150 151 
3 118 151 119 
3 119 151 152 
3 119 152 120 
3 120 152 153 
3 120 153 121 
3 121 153 154 
3 121 154 122 
3 122 154 155 
3 122 155 123 
3 123 155 156 
3 123 156 124 
3 124 156 157 
3 124 157 125 
3 125 157 158 
3 125 158 126 
3 126 158 159 
3 126 159 127 
3 127 159 160 
3 127 160 128 
3 128 160 523 
3 128 524 525 
3 129 161 162 
3 129 162 130 
3 130 162 163 
3 130 163 131 
3 131 163 164 
3 131 164 132 
3 132 164 165 
3 132 165 133 
3 133 165 166 
3 133 166 134 
3 134 166 167 
3 134 167 135 
3 135 167 168 
3 135 168 136 
3 136 168 169 
3 136 169 137 
3 137 169 170 
3 137 170 138 
3 138 170 171 
3 138 171 139 
3 139 171 172 
3 139 172 140 
3 140 172 173 
3 140 173 141 
3 141 173 174 
3 141 174 142 
3 142 174 175 
3 142 175 143 
3 143 175 176 
3 143 176 144 
3 144 176 177 
3 144 177 145 
3 145 177 178 
3 145 178 146 
3 146 178 179 
3 146 179 147 
3 147 179 180 
3 147 180 148 
3 148 180 181 
3 148 181 149 
3 149 181 182 
3 149 182 150 
3 150 182 183 
3 150 183 151 
3 151 183 184 
3 151 184 152 
3 152 184 185 
3 152 185 153 
3 153 185 186 
3 153 186 154 
3 154 186 187 
3 154 187 155 
3 155 187 188 
3 155 188 156 
3 156 188 189 
3 156 189 157 
3 157 189 190 
3 157 190 158 
3 158 190 191 
3 158 191 159 
3 159 191 192 
3 159 192 160 
3 160 192 526 
3 160 527 528 
3 161 193 194 
3 161 194 162 
3 162 194 195 
3 162 195 163 
3 163 195 196 
3 163 196 164 
3 164 196 197 
3 164 197 165 
3 165 197 198 
3 165 198 166 
3 166 198 199 
3 166 199 167 
3 167 199 200 
3 167 200 168 
3 168 200 201 
3 168 201 169 
3 169 201 202 
3 169 202 170 
3 170 202 203 
3 170 203 171 
3 171 203 204 
3 171 204 172 
3 172 204 205 
3 172 205 173 
3 173 205 206 
3 173 206 174 
3 174 206 207 
3 174 207 175 
3 175 207 208 
3 175 208 176 
3 176 208 209 
3 176 209 177 
3 177 209 210 
3 177 210 178 
3 178 210 211 
3 178 211 179 
3 179 211 212 
3 179 212 180 
3 180 212 213 
3 180 213 181 
3 181 213 214 
3 181 214 182 
3 182 214 215 
3 182 215 183 
3 183 215 216 
3 183 216 184 
3 184 216 217 
3 184 217 185 
3 185 217 218 
3 185 218 186 
3 186 218 219 
3 186 219 187 
3 187 219 220 
3 187 220 188 
3 188 220 221 
3 188 221 189 
3 189 221 222 
3 189 222 190 
3 190 222 223 
3 190 223 191 
3 191 223 224 
3 191 224 192 
3 192 224 529 
3 192 530 531 
3 193 225 226 
3 193 226 194 
3 194 226 227 
3 194 227 195 
3 195 227 228 
3 195 228 196 
3 196 228 229 
3 196 229 197 
3 197 229 230 
3 197 230 198 
3 198 230 231 
3 198 231 199 
3 199 231 232 
3 199 232 200 
3 200 232 233 
3 200 233 201 
3 201 233 234 
3 201 234 202 
3 202 234 235 
3 202 235 203 
3 203 235 236 
3 203 236 204 
3 204 236 237 
3 204 237 205 
3 205 237 238 
3 205 238 206 
3 206 238 239 
3 206 239 207 
3 207 239 240 
3 207 240 208 
3 208 240 241 
3 208 241 209 
3 209 241 242 
3 209 242 210 
3 210 242 243 
3 210 243 211 
3 211 243 244 
3 211 244 212 
3 212 244 245 
3 212 245 213 
3 213 245 246 
3 213 246 214 
3 214 246 247 
3 214 247 215 
3 215 247 248 
3 215 248 216 
3 216 248 249 
3 216 249 217 
3 217 249 250 
3 217 250 218 
3 218 250 251 
3 218 251 219 
3 219 251 252 
3 219 252 220 
3 220 252 253 
3 220 253 221 
3 221 253 254 
3 221 254 222 
3 222 254 255 
3 222 255 223 
3 223 255 256 
3 223 256 224 
3 224 256 532 
3 224 533 534 
3 225 257 258 
3 225 258 226 
3 226 258 259 
3 226 259 227 
3 227 259 260 
3 227 260 228 
3 228 260 261 
3 228 261 229 
3 229 261 262 
3 229 262 230 
3 230 262 263 
3 230 263 231 
3 231 263 264 
3 231 264 232 
3 232 264 265 
3 232 265 233 
3 233 265 266 
3 233 266 234 
3 234 266 267 
3 234 267 235 
3 235 267 268 
3 235 268 236 
3 236 268 269 
3 236 269 237 
3 237 269 270 
3 237 270 238 
3 238 270 271 
3 238 271 239 
3 239 271 272 
3 239 272 240 
3 240 272 273 
3 240 273 241 
3 241 273 274 
3 241 274 242 
3 242 274 275 
3 242 275 243 
3 243 275 276 
3 243 276 244 
3 244 276 277 
3 244 277 245 
3 245 277 278 
3 245 278 246 
3 246 278 279 
3 246 279 247 
3 247 279 280 
3 247 280 248 
3 248 280 281 
3 248 281 249 
3 249 281 282 
3 249 282 250 
3 250 282 283 
3 250 283 251 
3 251 283 284 
3 251 284 252 
3 252 284 285 
3 252 285 253 
3 253 285 286 
3 253 286 254 
3 254 286 287 
3 254 287 255 
3 255 287 288 
3 255 288 256 
3 256 288 535 
3 256 536 537 
3 257 289 290 
3 257 290 258 
3 258 290 291 
3 258 291 259 
3 259 291 292 
3 259 292 260 
3 260 292 293 
3 260 293 261 
3 261 293 294 
3 261 294 262 
3 262 294 295 
3 262 295 263 
3 263 295 296 
3 263 296 264 
3 264 296 297 
3 264 297 265 
3 265 297 298 
3 265 298 266 
3 266 298 299 
3 266 299 267 
3 267 299 300 
3 267 300 268 
3 268 300 301 
3 268 301 269 
3 269 301 302 
3 269 302 270 
3 270 302 303 
3 270 303 271 
3 271 303 304 
3 271 304 272 
3 272 304 305 
3 272 305 273 
3 273 305 306 
3 273 306 274 
3 274 306 307 
3 274 307 275 
3 275 307 308 
3 275 308 276 
3 276 308 309 
3 276 309 277 
3 277 309 310 
3 277 310 278 
3 278 310 311 
3 278 311 279 
3 279 311 312 
3 279 312 280 
3 280 312 313 
3 280 313 281 
3 281 313 314 
3 281 314 282 
3 282 314 315 
3 282 315 283 
3 283 315 316 
3 283 316 284 
3 284 316 317 
3 284 317 285 
3 285 317 318 
3 285 318 286 
3 286 318 319 
3 286 319 287 
3 287 319 320 
3 287 320 288 
3 288 320 538 
3 288 539 540 
3 289 321 322 
3 289 322 290 
3 290 322 323 
3 290 323 291 
3 291 323 324 
3 291 324 292 
3 292 324 325 
3 292 325 293 
3 293 325 326 
3 293 326 294 
3 294 326 327 
3 294 327 295 
3 295 327 328 
3 295 328 296 
3 296 328 329 
3 296 329 297 
3 297 329 330 
3 297 330 298 
3 298 330 331 
3 298 331 299 
3 299 331 332 
3 299 332 300 
3 300 332 333 
3 300 333 301 
3 301 333 334 
3 301 334 302 
3 302 334 335 
3 302 335 303 
3 303 335 336 
3 303 336 304 
3 304 336 337 
3 304 337 305 
3 305 337 338 
3 305 338 306 
3 306 338 339 
3 306 339 307 
3 307 339 340 
3 307 340 308 
3 308 340 341 
3 308 341 309 
3 309 341 342 
3 309 342 310 
3 310 342 343 
3 310 343 311 
3 311 343 344 
3 311 344 312 
3 312 344 345 
3 312 345 313 
3 313 345 346 
3 313 346 314 
3 314 346 347 
3 314 347 315 
3 315 347 348 
3 315 348 316 
3 316 348 349 
3 316 349 317 
3 317 349 350 
3 317 350 318 
3 318 350 351 
3 318 351 319 
3 319 351 352 
3 319 352 320 
3 320 352 541 
3 320 542 543 
3 321 353 354 
3 321 354 322 
3 322 354 355 
3 322 355 323 
3 323 355 356 
3 323 356 324 
3 324 356 357 
3 324 357 325 
3 325 357 358 
3 325 358 326 
3 326 358 359 
3 326 359 327 
3 327 359 360 
3 327 360 328 
3 328 360 361 
3 328 361 329 
3 329 361 362 
3 329 362 330 
3 330 362 363 
3 330 363 331 
3 331 363 364 
3 331 364 332 
3 332 364 365 
3 332 365 333 
3 333 365 366 
3 333 366 334 
3 334 366 367 
3 334 367 335 
3 335 367 368 
3 335 368 336 
3 336 368 369 
3 336 369 337 
3 337 369 370 
3 337 370 338 
3 338 370 371 
3 338 371 339 
3 339 371 372 
3 339 372 340 
3 340 372 373 
3 340 373 341 
3 341 373 374 
3 341 374 342 
3 342 374 375 
3 342 375 343 
3 343 375 376 
3 343 376 344 
3 344 376 377 
3 344 377 345 
3 345 377 378 
3 345 378 346 
3 346 378 379 
3 346 379 347 
3 347 379 380 
3 347 380 348 
3 348 380 381 
3 348 381 349 
3 349 381 382 
3 349 382 350 
3 350 382 383 
3 350 383 351 
3 351 383 384 
3 351 384 352 
3 352 384 544 
3 352 545 546 
3 353 385 386 
3 353 386 354 
3 354 386 387 
3 354 387 355 
3 355 387 388 
3 355 388 356 
3 356 388 389 
3 356 389 357 
3 357 389 390 
3 357 390 358 
3 358 390 391 
3 358 391 359 
3 359 391 392 
3 359 392 360 
3 360 392 393 
3 360 393 361 
3 361 393 394 
3 361 394 362 
3 362 394 395 
3 362 395 363 
3 363 395 396 
3 363 396 364 
3 364 396 397 
3 364 397 365 
3 365 397 398 
3 365 398 366 
3 366 398 399 
3 366 399 367 
3 367 399 400 
3 367 400 368 
3 368 400 401 
3 368 401 369 
3 369 401 402 
3 369 402 370 
3 370 402 403 
3 370 403 371 
3 371 403 404 
3 371 404 372 
3 372 404 405 
3 372 405 373 
3 373 405 406 
3 373 406 374 
3 374 406 407 
3 374 407 375 
3 375 407 408 
3 375 408 376 
3 376 408 409 
3 376 409 377 
3 377 409 410 
3 377 410 378 
3 378 410 411 
3 378 411 379 
3 379 411 412 
3 379 412 380 
3 380 412 413 
3 380 413 381 
3 381 413 414 
3 381 414 382 
3 382 414 415 
3 382 415 383 
3 383 415 416 
3 383 416 384 
3 384 416 547 
3 384 548 549 
3 385 417 418 
3 385 418 386 
3 386 418 419 
3 386 419 387 
3 387 419 420 
3 387 420 388 
3 388 420 421 
3 388 421 389 
3 389 421 422 
3 389 422 390 
3 390 422 423 
3 390 423 391 
3 391 423 424 
3 391 424 392 
3 392 424 425 
3 392 425 393 
3 393 425 426 
3 393 426 394 
3 394 426 427 
3 394 427 395 
3 395 427 428 
3 395 428 396 
3 396 428 429 
3 396 429 397 
3 397 429 430 
3 397 430 398 
3 398 430 431 
3 398 431 399 
3 399 431 432 
3 399 432 400 
3 400 432 433 
3 400 433 401 
3 401 433 434 
3 401 434 402 
3 402 434 435 
3 402 435 403 
3 403 435 436 
3 403 436 404 
3 404 436 437 
3 404 437 405 
3 405 437 438 
3 405 438 406 
3 406 438 439 
3 406 439 407 
3 407 439 440 
3 407 440 408 
3 408 440 441 
3 408 441 409 
3 409 441 442 
3 409 442 410 
3 410 442 443 
3 410 443 411 
3 411 443 444 
3 411 444 412 
3 412 444 445 
3 412 445 413 
3 413 445 446 
3 413 446 414 
3 414 446 447 
3 414 447 415 
3 415 447 448 
3 415 448 416 
3 416 448 550 
3 416 551 552 
3 417 449 450 
3 417 450 418 
3 418 450 451 
3 418 451 419 
3 419 451 452 
3 419 452 420 
3 420 452 453 
3 420 453 421 
3 421 453 454 
3 421 454 422 
3 422 454 455 
3 422 455 423 
3 423 455 456 
3 423 456 424 
3 424 456 457 
3 424 457 425 
3 425 457 458 
3 425 458 426 
3 426 458 459 
3 426 459 427 
3 427 459 460 
3 427 460 428 
3 428 460 461 
3 428 461 429 
3 429 461 462 
3 429 462 430 
3 430 462 463 
3 430 463 431 
3 431 463 464 
3 431 464 432 
3 432 464 465 
3 432 465 433 
3 433 465 466 
3 433 466 434 
3 434 466 467 
3 434 467 435 
3 435 467 468 
3 435 468 436 
3 436 468 469 
3 436 469 437 
3 437 469 470 
3 437 470 438 
3 438 470 471 
3 438 471 439 
3 439 471 472 
3 439 472 440 
3 440 472 473 
3 440 473 441 
3 441 473 474 
3 441 474 442 
3 442 474 475 
3 442 475 443 
3 443 475 476 
3 443 476 444 
3 444 476 477 
3 444 477 445 
3 445 477 478 
3 445 478 446 
3 446 478 479 
3 446 479 447 
3 447 479 480 
3 447 480 448 
3 448 480 553 
3 448 554 555 
3 481 450 449 
3 556 451 450 
3 557 452 451 
3 558 453 452 
3 559 454 453 
3 560 455 454 
3 561 456 455 
3 562 457 456 
3 563 458 457 
3 564 459 458 
3 565 460 459 
3 566 461 460 
3 567 462 461 
3 568 463 462 
3 569 464 463 
3 570 465 464 
3 571 466 465 
3 572 467 466 
3 573 468 467 
3 574 469 468 
3 575 470 469 
3 576 471 470 
3 577 472 471 
3 578 473 472 
3 579 474 473 
3 580 475 474 
3 581 476 475 
3 582 477 476 
3 583 478 477 
3 584 479 478 
3 585 480 479 
3 586 587 480 
